<svg width="129" height="35" viewBox="0 0 172 47" fill="none" xmlns="http://www.w3.org/2000/svg">
<g clip-path="url(#clip0_2_97)">
<path fill-rule="evenodd" clip-rule="evenodd" d="M20.7391 0.628662C23.586 2.57573 26.3684 4.63421 29.0869 6.8041C27.6657 8.59266 26.1005 10.2652 24.3913 11.8216C23.473 12.5612 22.4731 12.7757 21.3913 12.4649C20.5312 9.26759 19.0096 6.43718 16.8261 3.97369C18.0584 2.75687 19.3628 1.64169 20.7391 0.628662Z" fill="#EF476F"/>
<path fill-rule="evenodd" clip-rule="evenodd" d="M13.9565 5.77484C14.6596 5.88626 15.2249 6.22925 15.6522 6.80408C17.033 9.08745 18.1633 11.4889 19.0435 14.0088C20.8618 15.8568 22.9051 16.0711 25.1739 14.652C27.5671 12.9347 29.6541 10.919 31.4348 8.60525C32.6082 9.46338 33.7385 10.364 34.8261 11.307C33.6493 16.1573 30.6929 19.5023 25.9565 21.3421C21.6047 22.9307 17.3439 24.7319 13.1739 26.7456C6.39288 30.5543 3.00158 36.3438 3.00001 44.114C2.0434 44.114 1.08706 44.114 0.130446 44.114C0.086881 39.9963 0.130446 35.8793 0.260881 31.7631C8.56462 26.0151 12.2168 18.1242 11.2174 8.09063C12.1805 7.35344 13.0936 6.58151 13.9565 5.77484Z" fill="#EF476F"/>
<path fill-rule="evenodd" clip-rule="evenodd" d="M7.95651 10.4064C8.85704 17.6471 6.33547 23.5653 0.391297 28.1608C0.0435584 24.2155 0.0435584 20.2699 0.391297 16.3246C2.9786 14.4089 5.50043 12.4361 7.95651 10.4064Z" fill="#EF476F"/>
<path fill-rule="evenodd" clip-rule="evenodd" d="M37.1739 13.2368C38.7227 14.2898 40.2446 15.4047 41.7391 16.5819C41.8696 19.2394 41.9129 21.8982 41.8696 24.5585C33.0853 25.1817 25.6505 28.6124 19.5652 34.8509C16.8571 37.6934 14.5529 40.8241 12.6522 44.2427C10.393 44.3714 8.13208 44.4141 5.86956 44.3714C5.69269 37.7279 8.47539 32.7103 14.2174 29.3187C18.3926 27.3171 22.6534 25.5159 27 23.9152C30.1114 22.5566 32.7636 20.6268 34.9565 18.1257C35.9807 16.62 36.7197 14.9904 37.1739 13.2368Z" fill="#EF476F"/>
<path fill-rule="evenodd" clip-rule="evenodd" d="M41.8696 44.114C41.261 44.114 40.6521 44.114 40.0435 44.114C40.1053 43.7818 40.0184 43.5245 39.7826 43.3421C39.48 39.8725 38.0888 36.9135 35.6087 34.4649C32.49 32.8385 29.8377 33.3958 27.6522 36.1374C25.9511 38.5978 24.864 41.2996 24.3913 44.2427C21.6047 44.4568 18.822 44.4141 16.0435 44.114C20.3442 36.7403 26.5182 31.5511 34.5652 28.5468C36.942 27.7988 39.377 27.4128 41.8696 27.3889C41.8696 32.964 41.8696 38.5389 41.8696 44.114Z" fill="#EF476F"/>
<path fill-rule="evenodd" clip-rule="evenodd" d="M36.913 43.3421C36.913 43.5994 36.913 43.8567 36.913 44.114C33.6835 44.2803 30.553 44.1086 27.5217 43.5994C27.9903 41.0029 29.1206 38.7298 30.913 36.7807C32.7991 35.9452 34.2339 36.4169 35.2174 38.1959C36.1244 39.8077 36.6897 41.5232 36.913 43.3421Z" fill="#EF476F"/>
<path fill-rule="evenodd" clip-rule="evenodd" d="M36.9131 43.3421C37.1567 43.6169 37.2438 43.9599 37.1739 44.3713C33.8695 44.3713 30.5653 44.3713 27.2609 44.3713C27.1991 44.0392 27.2859 43.7818 27.5218 43.5994C30.5531 44.1086 33.6835 44.2803 36.9131 44.114C36.9131 43.8567 36.9131 43.5994 36.9131 43.3421Z" fill="#EF476F"/>
<path fill-rule="evenodd" clip-rule="evenodd" d="M39.7826 43.3421C40.0184 43.5245 40.1053 43.7818 40.0435 44.114C40.6521 44.114 41.2609 44.114 41.8695 44.114C41.2309 44.3644 40.5352 44.4501 39.7826 44.3713C39.7826 44.0283 39.7826 43.6851 39.7826 43.3421Z" fill="#EF476F"/>
</g>
<path d="M65.907 37.9444H57.4312V11.7626H66.1755C68.7408 11.7626 70.944 12.2868 72.7849 13.3351C74.6258 14.3748 76.0363 15.8706 77.0164 17.8223C78.005 19.7654 78.4994 22.0964 78.4994 24.8152C78.4994 27.5424 78.0008 29.8862 77.0036 31.8464C76.015 33.8066 74.5832 35.3152 72.7082 36.372C70.8332 37.4203 68.5661 37.9444 65.907 37.9444ZM61.3815 34.4927H65.6897C67.684 34.4927 69.3417 34.1177 70.6627 33.3677C71.9837 32.6092 72.9724 31.514 73.6286 30.0822C74.2849 28.6419 74.613 26.8862 74.613 24.8152C74.613 22.7612 74.2849 21.0183 73.6286 19.5865C72.9809 18.1547 72.0136 17.068 70.7266 16.3265C69.4397 15.5851 67.8417 15.2143 65.9326 15.2143H61.3815V34.4927ZM85.9219 37.9444L80.1435 18.3081H84.0938L87.9418 32.7285H88.1336L91.9944 18.3081H95.9446L99.7799 32.6646H99.9716L103.794 18.3081H107.744L101.979 37.9444H98.0796L94.091 23.7669H93.7969L89.8083 37.9444H85.9219ZM117.797 38.3407C115.863 38.3407 114.196 37.9274 112.799 37.1007C111.409 36.2655 110.336 35.0936 109.577 33.5851C108.827 32.068 108.452 30.291 108.452 28.2541C108.452 26.2427 108.827 24.47 109.577 22.9359C110.336 21.4018 111.392 20.2044 112.748 19.3436C114.111 18.4828 115.705 18.0524 117.529 18.0524C118.637 18.0524 119.711 18.2356 120.75 18.6021C121.79 18.9686 122.723 19.5439 123.55 20.328C124.377 21.112 125.029 22.1305 125.506 23.3833C125.983 24.6277 126.222 26.1405 126.222 27.9217V29.2768H110.613V26.4132H122.476C122.476 25.4075 122.272 24.5169 121.863 23.7413C121.454 22.9572 120.878 22.3393 120.137 21.8876C119.404 21.4359 118.543 21.2101 117.554 21.2101C116.481 21.2101 115.543 21.4743 114.742 22.0027C113.949 22.5226 113.336 23.2044 112.901 24.0481C112.475 24.8833 112.262 25.791 112.262 26.7711V29.0083C112.262 30.3208 112.492 31.4373 112.952 32.3578C113.421 33.2782 114.073 33.9814 114.908 34.4672C115.743 34.9444 116.719 35.1831 117.836 35.1831C118.56 35.1831 119.221 35.0808 119.817 34.8762C120.414 34.6632 120.929 34.3478 121.364 33.9302C121.799 33.5126 122.131 32.997 122.361 32.3833L125.979 33.0353C125.689 34.1007 125.169 35.0339 124.419 35.8351C123.678 36.6277 122.745 37.2456 121.62 37.6887C120.503 38.1234 119.229 38.3407 117.797 38.3407ZM132.846 11.7626V37.9444H129.023V11.7626H132.846ZM140.37 11.7626V37.9444H136.548V11.7626H140.37ZM144.073 37.9444V18.3081H147.895V37.9444H144.073ZM146.003 15.2782C145.338 15.2782 144.767 15.0566 144.29 14.6135C143.821 14.1618 143.587 13.6248 143.587 13.0027C143.587 12.372 143.821 11.8351 144.29 11.3919C144.767 10.9402 145.338 10.7143 146.003 10.7143C146.668 10.7143 147.235 10.9402 147.703 11.3919C148.181 11.8351 148.419 12.372 148.419 13.0027C148.419 13.6248 148.181 14.1618 147.703 14.6135C147.235 15.0566 146.668 15.2782 146.003 15.2782ZM159.869 38.3407C158.028 38.3407 156.421 37.9189 155.049 37.0751C153.677 36.2314 152.612 35.051 151.853 33.5339C151.095 32.0169 150.716 30.2441 150.716 28.2157C150.716 26.1788 151.095 24.3976 151.853 22.872C152.612 21.3464 153.677 20.1618 155.049 19.318C156.421 18.4743 158.028 18.0524 159.869 18.0524C161.71 18.0524 163.316 18.4743 164.689 19.318C166.061 20.1618 167.126 21.3464 167.885 22.872C168.643 24.3976 169.022 26.1788 169.022 28.2157C169.022 30.2441 168.643 32.0169 167.885 33.5339C167.126 35.051 166.061 36.2314 164.689 37.0751C163.316 37.9189 161.71 38.3407 159.869 38.3407ZM159.882 35.1319C161.075 35.1319 162.064 34.8166 162.848 34.1859C163.632 33.5552 164.211 32.7157 164.586 31.6674C164.97 30.6191 165.162 29.4643 165.162 28.203C165.162 26.9501 164.97 25.7995 164.586 24.7512C164.211 23.6944 163.632 22.8464 162.848 22.2072C162.064 21.568 161.075 21.2484 159.882 21.2484C158.68 21.2484 157.683 21.568 156.89 22.2072C156.106 22.8464 155.522 23.6944 155.139 24.7512C154.764 25.7995 154.576 26.9501 154.576 28.203C154.576 29.4643 154.764 30.6191 155.139 31.6674C155.522 32.7157 156.106 33.5552 156.89 34.1859C157.683 34.8166 158.68 35.1319 159.882 35.1319Z" fill="black"/>
<defs>
<clipPath id="clip0_2_97">
<rect width="42" height="44" fill="white" transform="translate(0 0.5)"/>
</clipPath>
</defs>
</svg>
